<mxfile host="app.diagrams.net" modified="2022-11-16T10:29:49.438Z" agent="5.0 (Windows)" etag="ISNFpUCM6BtuSZPZ7FZe" version="20.5.3" type="github">
  <diagram id="H3oJV_ZtTx11FDRoekwy" name="Page-1">
    <mxGraphModel dx="1422" dy="831" grid="1" gridSize="10" guides="1" tooltips="1" connect="1" arrows="1" fold="1" page="1" pageScale="1" pageWidth="850" pageHeight="1100" math="0" shadow="0">
      <root>
        <mxCell id="0" />
        <mxCell id="1" parent="0" />
        <mxCell id="PhcrgridLORNXjPtuMVZ-2" value="Главная страница пользователя" style="swimlane;whiteSpace=wrap;html=1;" vertex="1" parent="1">
          <mxGeometry x="30" y="90" width="490" height="140" as="geometry" />
        </mxCell>
        <mxCell id="PhcrgridLORNXjPtuMVZ-5" value="Создать заявку" style="rounded=0;whiteSpace=wrap;html=1;" vertex="1" parent="PhcrgridLORNXjPtuMVZ-2">
          <mxGeometry x="60" y="60" width="120" height="60" as="geometry" />
        </mxCell>
        <mxCell id="PhcrgridLORNXjPtuMVZ-6" value="Найти заявку" style="rounded=0;whiteSpace=wrap;html=1;" vertex="1" parent="PhcrgridLORNXjPtuMVZ-2">
          <mxGeometry x="310" y="60" width="120" height="60" as="geometry" />
        </mxCell>
        <mxCell id="PhcrgridLORNXjPtuMVZ-7" value="Создать заявку" style="swimlane;whiteSpace=wrap;html=1;" vertex="1" parent="1">
          <mxGeometry x="30" y="270" width="490" height="150" as="geometry" />
        </mxCell>
        <mxCell id="PhcrgridLORNXjPtuMVZ-9" value="Выбор темы" style="rounded=0;whiteSpace=wrap;html=1;" vertex="1" parent="PhcrgridLORNXjPtuMVZ-7">
          <mxGeometry x="50" y="40" width="110" height="40" as="geometry" />
        </mxCell>
        <mxCell id="PhcrgridLORNXjPtuMVZ-10" value="Окно ввода данных о заявке" style="rounded=0;whiteSpace=wrap;html=1;" vertex="1" parent="PhcrgridLORNXjPtuMVZ-7">
          <mxGeometry x="250" y="40" width="200" height="90" as="geometry" />
        </mxCell>
        <mxCell id="PhcrgridLORNXjPtuMVZ-11" value="Главная страница сотрудника HelpDesk" style="swimlane;whiteSpace=wrap;html=1;" vertex="1" parent="1">
          <mxGeometry x="560" y="90" width="300" height="140" as="geometry" />
        </mxCell>
        <mxCell id="PhcrgridLORNXjPtuMVZ-12" value="Создать заявку" style="rounded=0;whiteSpace=wrap;html=1;" vertex="1" parent="PhcrgridLORNXjPtuMVZ-11">
          <mxGeometry x="30" y="80" width="100" height="30" as="geometry" />
        </mxCell>
        <mxCell id="PhcrgridLORNXjPtuMVZ-13" value="Найти заявку" style="rounded=0;whiteSpace=wrap;html=1;" vertex="1" parent="PhcrgridLORNXjPtuMVZ-11">
          <mxGeometry x="30" y="40" width="100" height="30" as="geometry" />
        </mxCell>
        <mxCell id="PhcrgridLORNXjPtuMVZ-14" value="Отчеты" style="rounded=0;whiteSpace=wrap;html=1;" vertex="1" parent="PhcrgridLORNXjPtuMVZ-11">
          <mxGeometry x="160" y="80" width="100" height="30" as="geometry" />
        </mxCell>
        <mxCell id="PhcrgridLORNXjPtuMVZ-40" value="" style="endArrow=classic;html=1;rounded=0;exitX=0.917;exitY=1;exitDx=0;exitDy=0;exitPerimeter=0;entryX=0.441;entryY=-0.013;entryDx=0;entryDy=0;entryPerimeter=0;dashed=1;" edge="1" parent="PhcrgridLORNXjPtuMVZ-11" target="PhcrgridLORNXjPtuMVZ-15">
          <mxGeometry width="50" height="50" relative="1" as="geometry">
            <mxPoint x="130" y="70" as="sourcePoint" />
            <mxPoint x="213.77999999999997" y="128.04999999999995" as="targetPoint" />
          </mxGeometry>
        </mxCell>
        <mxCell id="PhcrgridLORNXjPtuMVZ-41" value="" style="endArrow=classic;html=1;rounded=0;exitX=0.917;exitY=1;exitDx=0;exitDy=0;exitPerimeter=0;entryX=0.965;entryY=-0.013;entryDx=0;entryDy=0;entryPerimeter=0;dashed=1;" edge="1" parent="PhcrgridLORNXjPtuMVZ-11" target="PhcrgridLORNXjPtuMVZ-7">
          <mxGeometry width="50" height="50" relative="1" as="geometry">
            <mxPoint x="30" y="110" as="sourcePoint" />
            <mxPoint x="113.77999999999997" y="168.04999999999995" as="targetPoint" />
          </mxGeometry>
        </mxCell>
        <mxCell id="PhcrgridLORNXjPtuMVZ-15" value="Найти заявку" style="swimlane;whiteSpace=wrap;html=1;" vertex="1" parent="1">
          <mxGeometry x="560" y="270" width="490" height="150" as="geometry" />
        </mxCell>
        <mxCell id="PhcrgridLORNXjPtuMVZ-16" value="Фильры" style="rounded=0;whiteSpace=wrap;html=1;" vertex="1" parent="PhcrgridLORNXjPtuMVZ-15">
          <mxGeometry x="50" y="40" width="110" height="40" as="geometry" />
        </mxCell>
        <mxCell id="PhcrgridLORNXjPtuMVZ-17" value="Окно вывода результата поиска" style="rounded=0;whiteSpace=wrap;html=1;" vertex="1" parent="PhcrgridLORNXjPtuMVZ-15">
          <mxGeometry x="250" y="40" width="200" height="90" as="geometry" />
        </mxCell>
        <mxCell id="PhcrgridLORNXjPtuMVZ-18" value="Работа с заявкой" style="swimlane;whiteSpace=wrap;html=1;" vertex="1" parent="1">
          <mxGeometry x="560" y="470" width="490" height="150" as="geometry" />
        </mxCell>
        <mxCell id="PhcrgridLORNXjPtuMVZ-24" value="Окно изменения приоритета" style="rounded=0;whiteSpace=wrap;html=1;" vertex="1" parent="PhcrgridLORNXjPtuMVZ-18">
          <mxGeometry x="30" y="100" width="120" height="35" as="geometry" />
        </mxCell>
        <mxCell id="PhcrgridLORNXjPtuMVZ-25" value="Отправить запрос" style="rounded=0;whiteSpace=wrap;html=1;" vertex="1" parent="PhcrgridLORNXjPtuMVZ-18">
          <mxGeometry x="360" y="50" width="120" height="35" as="geometry" />
        </mxCell>
        <mxCell id="PhcrgridLORNXjPtuMVZ-26" value="История запросов" style="rounded=0;whiteSpace=wrap;html=1;" vertex="1" parent="PhcrgridLORNXjPtuMVZ-18">
          <mxGeometry x="200" y="50" width="120" height="35" as="geometry" />
        </mxCell>
        <mxCell id="PhcrgridLORNXjPtuMVZ-29" value="Информация о заявке" style="rounded=0;whiteSpace=wrap;html=1;" vertex="1" parent="PhcrgridLORNXjPtuMVZ-18">
          <mxGeometry x="30" y="50" width="120" height="35" as="geometry" />
        </mxCell>
        <mxCell id="PhcrgridLORNXjPtuMVZ-30" value="Окно изменения статуса заявки" style="rounded=0;whiteSpace=wrap;html=1;" vertex="1" parent="PhcrgridLORNXjPtuMVZ-18">
          <mxGeometry x="200" y="100" width="120" height="35" as="geometry" />
        </mxCell>
        <mxCell id="PhcrgridLORNXjPtuMVZ-31" value="Отчеты" style="swimlane;whiteSpace=wrap;html=1;startSize=23;" vertex="1" parent="1">
          <mxGeometry x="560" y="660" width="490" height="150" as="geometry" />
        </mxCell>
        <mxCell id="PhcrgridLORNXjPtuMVZ-32" value="Выбор варианта отчета" style="rounded=0;whiteSpace=wrap;html=1;" vertex="1" parent="PhcrgridLORNXjPtuMVZ-31">
          <mxGeometry x="50" y="40" width="110" height="40" as="geometry" />
        </mxCell>
        <mxCell id="PhcrgridLORNXjPtuMVZ-33" value="Окно вывода результата " style="rounded=0;whiteSpace=wrap;html=1;" vertex="1" parent="PhcrgridLORNXjPtuMVZ-31">
          <mxGeometry x="250" y="40" width="170" height="40" as="geometry" />
        </mxCell>
        <mxCell id="PhcrgridLORNXjPtuMVZ-37" value="Выгрузить результат в excel" style="rounded=0;whiteSpace=wrap;html=1;" vertex="1" parent="PhcrgridLORNXjPtuMVZ-31">
          <mxGeometry x="250" y="100" width="170" height="40" as="geometry" />
        </mxCell>
        <mxCell id="PhcrgridLORNXjPtuMVZ-39" value="" style="endArrow=classic;html=1;rounded=0;exitX=0.917;exitY=1;exitDx=0;exitDy=0;exitPerimeter=0;entryX=0.518;entryY=-0.013;entryDx=0;entryDy=0;entryPerimeter=0;dashed=1;" edge="1" parent="1" source="PhcrgridLORNXjPtuMVZ-5" target="PhcrgridLORNXjPtuMVZ-7">
          <mxGeometry width="50" height="50" relative="1" as="geometry">
            <mxPoint x="400" y="450" as="sourcePoint" />
            <mxPoint x="450" y="400" as="targetPoint" />
          </mxGeometry>
        </mxCell>
        <mxCell id="PhcrgridLORNXjPtuMVZ-42" value="" style="endArrow=classic;html=1;rounded=0;exitX=0.5;exitY=1;exitDx=0;exitDy=0;entryX=0.522;entryY=0;entryDx=0;entryDy=0;entryPerimeter=0;dashed=1;" edge="1" parent="1" source="PhcrgridLORNXjPtuMVZ-17" target="PhcrgridLORNXjPtuMVZ-18">
          <mxGeometry width="50" height="50" relative="1" as="geometry">
            <mxPoint x="910" y="380" as="sourcePoint" />
            <mxPoint x="996.0900000000001" y="488.04999999999995" as="targetPoint" />
          </mxGeometry>
        </mxCell>
        <mxCell id="PhcrgridLORNXjPtuMVZ-43" value="" style="endArrow=classic;html=1;rounded=0;exitX=0.93;exitY=1.1;exitDx=0;exitDy=0;exitPerimeter=0;entryX=0.533;entryY=-0.033;entryDx=0;entryDy=0;entryPerimeter=0;dashed=1;" edge="1" parent="1" source="PhcrgridLORNXjPtuMVZ-14" target="PhcrgridLORNXjPtuMVZ-31">
          <mxGeometry width="50" height="50" relative="1" as="geometry">
            <mxPoint x="700" y="170" as="sourcePoint" />
            <mxPoint x="786.0900000000001" y="278.04999999999995" as="targetPoint" />
            <Array as="points">
              <mxPoint x="1090" y="240" />
              <mxPoint x="1110" y="430" />
              <mxPoint x="1070" y="640" />
            </Array>
          </mxGeometry>
        </mxCell>
      </root>
    </mxGraphModel>
  </diagram>
</mxfile>
